<svg viewBox="0 0 177.99 200" xml:space="preserve" xmlns="http://www.w3.org/2000/svg">
    <path fill="#ffffff"
          d="M167.078 129.863V68.606c6.193-1.064 10.912-6.448 10.912-12.946 0-7.263-5.887-13.15-13.15-13.15s-13.15 5.888-13.15 13.15c0 3.644 1.484 6.94 3.877 9.322l-16.705 28.616-41.206-70.662c2.688-2.408 4.389-5.894 4.389-9.786C102.045 5.888 96.156 0 88.894 0c-7.263 0-13.151 5.888-13.151 13.15 0 3.696 1.53 7.03 3.984 9.419L38.309 93.598l-16.42-28.129c2.701-2.408 4.413-5.905 4.413-9.809 0-7.263-5.888-13.15-13.15-13.15S0 48.397 0 55.66c0 6.208 4.307 11.398 10.092 12.778v61.593C4.308 131.412 0 136.604 0 142.811c0 7.262 5.888 13.15 13.15 13.15 3.755 0 7.133-1.582 9.529-4.104l53.499 30.949a13.107 13.107 0 0 0-.64 4.043c0 7.262 5.888 13.15 13.15 13.15 7.264 0 13.151-5.889 13.151-13.15 0-1.451-.244-2.84-.676-4.143l53.865-31.162c2.408 2.703 5.904 4.416 9.811 4.416 7.264 0 13.15-5.889 13.15-13.15.001-6.497-4.718-11.88-10.911-12.947zm-6.289-61.695c.059.019.115.042.174.059v62.017c-.207.063-.404.143-.605.217l-17.955-30.793 18.386-31.5zm-75.811-42.46c1.237.385 2.552.593 3.917.593 1.17 0 2.299-.168 3.379-.455l43.047 73.82L91.867 174.1c-1.02-.252-2.081-.4-3.178-.4-1.162 0-2.285.164-3.359.449L41.851 99.666l43.127-73.958zm-50.209 73.96-17.818 30.555a11.52 11.52 0 0 0-.742-.191V68.438c.096-.022.191-.048.287-.073l18.273 31.303zm-9.019 46.898a13.107 13.107 0 0 0-3.52-13.256l16.081-27.576 41.63 71.314c-.195.176-.394.346-.579.533L25.75 146.566zm72.189 30.94c-.203-.203-.422-.391-.639-.58l41.559-71.191 16.387 28.104a13.091 13.091 0 0 0-3.557 8.973c0 1.156.164 2.273.443 3.344l-54.193 31.35z"></path>
</svg>
