<?xml version="1.0" standalone="no"?>
<!DOCTYPE svg PUBLIC "-//W3C//DTD SVG 20010904//EN"
 "http://www.w3.org/TR/2001/REC-SVG-20010904/DTD/svg10.dtd">
<svg version="1.0" xmlns="http://www.w3.org/2000/svg"
 width="800.000000pt" height="800.000000pt" viewBox="0 0 800.000000 800.000000"
 preserveAspectRatio="xMidYMid meet">
<metadata>
Created by potrace 1.14, written by Peter Selinger 2001-2017
</metadata>
<g transform="translate(0.000000,800.000000) scale(0.100000,-0.100000)"
fill="#000000" stroke="none">
<path d="M3845 7976 c-113 -38 -149 -60 -231 -143 -116 -117 -171 -324 -129
-482 13 -51 61 -161 73 -171 4 -3 21 -23 38 -46 l32 -40 -50 -85 c-91 -152
-109 -184 -115 -201 -3 -10 -9 -18 -14 -18 -5 0 -9 -4 -9 -9 0 -5 -37 -71 -81
-147 -45 -77 -105 -179 -134 -229 -28 -49 -91 -156 -138 -237 -48 -81 -87
-150 -87 -153 0 -3 -15 -29 -34 -58 -29 -44 -372 -632 -413 -707 -8 -14 -23
-38 -33 -55 -11 -16 -23 -37 -27 -45 -3 -8 -21 -39 -40 -68 -18 -29 -33 -54
-33 -56 0 -2 -34 -61 -75 -131 -41 -69 -75 -129 -75 -132 0 -4 -6 -14 -14 -22
-7 -9 -24 -36 -37 -61 -13 -25 -26 -47 -29 -50 -3 -3 -15 -23 -27 -46 -12 -22
-60 -105 -107 -183 -82 -140 -84 -143 -98 -120 -21 34 -156 266 -183 314 -13
22 -50 86 -84 143 -34 57 -61 108 -61 113 0 5 -3 9 -8 9 -4 0 -13 15 -21 33
-8 17 -17 34 -21 37 -4 3 -20 30 -37 60 -16 30 -53 93 -80 140 -48 80 -62 104
-120 207 l-25 43 44 50 c182 208 169 519 -29 717 -202 202 -540 201 -738 -3
-105 -108 -154 -228 -153 -376 2 -162 80 -316 214 -419 30 -23 93 -55 144 -74
l45 -16 0 -1222 c-1 -672 -4 -1227 -8 -1234 -4 -6 -19 -14 -34 -17 -104 -24
-248 -147 -302 -256 -47 -97 -61 -161 -57 -265 7 -176 91 -325 240 -420 75
-47 166 -76 257 -80 76 -3 175 10 194 25 6 4 21 11 35 15 34 10 120 64 148 93
21 22 26 23 55 11 18 -7 39 -17 47 -24 29 -22 159 -95 169 -95 6 0 11 -4 11
-8 0 -5 16 -14 35 -22 19 -8 35 -17 35 -22 0 -4 4 -8 9 -8 5 0 39 -18 75 -40
36 -22 70 -40 75 -40 5 0 11 -3 13 -7 3 -8 50 -36 106 -62 17 -8 32 -19 32
-23 0 -4 4 -8 9 -8 5 0 42 -19 83 -43 40 -24 93 -55 118 -69 42 -24 376 -218
410 -238 8 -5 83 -48 165 -95 83 -47 157 -90 165 -95 21 -13 118 -69 165 -96
22 -12 81 -45 130 -74 50 -29 106 -61 125 -72 135 -77 139 -80 128 -107 -18
-47 -17 -209 2 -272 28 -90 70 -166 127 -224 49 -50 152 -121 190 -130 10 -3
41 -11 68 -19 74 -21 214 -15 295 14 250 88 401 358 340 608 -7 29 -11 54 -9
56 2 1 42 24 89 51 47 27 123 71 170 98 47 28 101 59 120 70 19 11 49 28 65
38 17 11 37 22 45 26 8 3 32 17 53 30 21 13 55 33 75 45 50 28 122 69 147 82
11 6 22 13 25 16 5 5 23 15 88 51 20 11 51 29 67 40 17 10 37 22 45 26 8 4 47
26 85 48 39 23 90 53 115 67 25 14 86 49 135 78 50 29 108 62 130 75 22 12 81
46 130 75 50 29 108 63 130 75 47 26 263 151 285 165 8 5 46 27 85 49 56 32
71 37 78 26 15 -28 136 -105 203 -131 91 -34 219 -40 316 -13 337 93 488 471
312 777 -59 102 -213 218 -316 237 -20 4 -38 12 -41 18 -2 7 -3 558 -3 1225
l1 1213 74 26 c222 77 362 273 356 500 -2 103 -5 119 -34 195 -52 136 -163
237 -336 308 -40 16 -198 22 -260 9 -182 -39 -344 -191 -398 -374 -43 -150 -5
-340 94 -465 l40 -50 -56 -98 c-59 -102 -61 -105 -112 -189 -18 -30 -33 -55
-33 -57 0 -2 -56 -99 -125 -216 -69 -117 -125 -214 -125 -215 0 -2 -19 -33
-41 -71 -36 -59 -66 -111 -103 -179 -6 -11 -13 -22 -16 -25 -3 -3 -14 -22 -25
-43 -11 -21 -23 -40 -26 -43 -6 -3 -70 103 -157 256 -14 25 -35 61 -47 80 -12
19 -33 55 -47 80 -14 25 -56 97 -93 160 -37 63 -79 135 -93 160 -14 25 -33 57
-43 72 -11 14 -19 28 -19 31 0 3 -34 63 -77 134 -42 70 -84 143 -95 161 -10
17 -26 47 -36 65 -11 17 -128 218 -260 446 -133 227 -242 417 -242 422 0 5 -4
9 -10 9 -5 0 -10 4 -10 9 0 9 -213 379 -230 398 -5 7 -10 14 -10 17 0 3 -41
75 -91 161 l-92 156 30 32 c137 146 181 358 113 540 -44 117 -120 208 -229
274 -79 48 -142 65 -251 69 -79 2 -107 -1 -165 -20z m150 -1022 c61 -1 115 2
122 7 8 7 19 -4 39 -38 15 -26 34 -59 43 -73 9 -14 21 -34 26 -45 6 -11 68
-117 137 -235 69 -118 136 -233 149 -256 42 -71 253 -434 270 -462 15 -25 250
-429 289 -497 10 -16 40 -68 67 -115 156 -266 183 -313 183 -318 0 -3 6 -13
14 -21 7 -9 24 -36 37 -61 13 -25 26 -47 29 -50 6 -6 21 -32 63 -110 17 -30
33 -57 36 -60 6 -5 24 -36 58 -100 10 -19 20 -37 23 -40 3 -3 11 -16 18 -29 8
-13 22 -38 31 -55 10 -17 32 -54 49 -82 18 -28 32 -56 32 -63 0 -6 4 -11 8
-11 4 0 13 -12 20 -27 6 -16 24 -48 40 -73 15 -25 39 -64 51 -86 l23 -42 -107
-183 c-59 -101 -116 -199 -126 -216 -11 -18 -27 -48 -38 -65 -10 -18 -48 -84
-85 -146 -36 -62 -66 -117 -66 -122 0 -4 -4 -10 -8 -12 -4 -1 -34 -50 -67
-108 -33 -58 -63 -106 -67 -108 -4 -2 -8 -8 -8 -13 0 -5 -18 -39 -40 -75 -22
-36 -40 -68 -40 -70 0 -2 -24 -43 -53 -91 -29 -48 -56 -95 -60 -103 -8 -17
-30 -53 -37 -60 -3 -3 -13 -21 -24 -40 -10 -19 -26 -48 -36 -65 -10 -16 -56
-95 -102 -175 -47 -80 -91 -156 -99 -170 -8 -14 -16 -27 -19 -30 -3 -3 -11
-16 -17 -30 -7 -14 -24 -43 -38 -65 -13 -22 -29 -49 -35 -60 -6 -11 -24 -42
-41 -70 -16 -27 -35 -61 -42 -75 -6 -14 -14 -27 -17 -30 -12 -10 -64 -105 -62
-112 1 -5 -2 -8 -6 -8 -4 0 -19 -22 -33 -50 -13 -27 -27 -50 -31 -50 -5 0 -8
-5 -8 -10 0 -6 -11 -27 -23 -48 -13 -20 -35 -57 -49 -82 -71 -124 -114 -195
-120 -198 -5 -2 -8 -8 -8 -13 0 -5 -27 -56 -60 -112 l-60 -102 -112 2 c-61 2
-117 -2 -123 -7 -20 -17 -40 9 -151 200 -59 102 -120 205 -136 229 -15 25 -28
48 -28 53 0 5 -5 14 -10 21 -6 7 -28 41 -48 77 -21 36 -61 103 -88 150 -28 47
-53 92 -57 100 -4 8 -15 27 -25 42 -35 54 -112 191 -112 199 0 5 -4 9 -10 9
-5 0 -10 6 -10 14 0 7 -7 19 -15 26 -8 6 -14 15 -13 18 1 4 -9 25 -23 47 -14
22 -29 47 -33 55 -4 8 -17 32 -29 52 -92 155 -117 199 -117 208 0 5 -4 10 -8
10 -4 0 -19 22 -33 50 -13 27 -27 50 -31 50 -5 0 -8 4 -8 9 0 5 -34 67 -75
136 -41 70 -75 128 -75 130 0 1 -31 54 -68 116 -37 63 -71 121 -75 129 -4 8
-16 30 -27 48 -17 28 -163 277 -216 369 -140 241 -229 391 -240 403 -13 16 -7
27 108 225 20 33 66 114 104 180 38 66 72 122 76 123 5 2 8 8 8 13 0 5 52 97
115 204 63 107 115 197 115 200 0 3 8 18 19 33 27 40 55 86 56 92 0 3 8 16 17
30 9 14 22 37 29 53 7 15 16 27 21 27 4 0 8 6 8 13 0 7 15 36 34 65 19 28 32
52 29 52 -3 0 1 7 8 16 7 9 18 24 24 34 85 149 117 204 179 310 41 69 100 170
132 225 31 55 76 132 99 170 23 39 60 102 82 140 137 235 223 381 268 460 196
340 181 319 209 309 12 -4 71 -8 131 -10z m2883 -2923 c0 -1289 0 -1299 -39
-1223 -8 15 -31 55 -51 90 -21 34 -38 67 -38 72 0 6 -4 10 -9 10 -5 0 -11 8
-14 18 -7 19 -40 76 -98 169 -21 34 -39 65 -39 67 0 3 -40 73 -90 157 -49 83
-90 153 -90 155 0 3 -12 23 -27 47 -33 52 -187 316 -220 377 l-25 45 84 143
c45 78 88 150 93 160 81 141 109 188 117 190 4 2 8 12 8 22 0 9 7 23 15 30 8
7 15 16 15 21 0 5 11 28 26 50 14 22 33 55 43 72 10 18 41 69 67 115 27 46 60
102 73 125 13 23 32 56 42 72 10 17 30 50 44 75 79 139 104 180 109 180 2 0 4
-558 4 -1239z m-5755 1197 c9 -18 33 -60 52 -93 20 -33 43 -75 52 -92 9 -18
20 -33 25 -33 4 0 8 -5 8 -11 0 -6 15 -37 34 -68 19 -31 43 -72 54 -91 11 -19
47 -81 81 -138 33 -57 61 -108 61 -113 0 -5 4 -9 9 -9 5 0 11 -8 14 -17 4 -10
18 -38 33 -63 69 -117 164 -278 182 -310 11 -19 38 -67 61 -106 l41 -71 -27
-49 c-15 -27 -31 -50 -35 -52 -4 -2 -8 -7 -8 -12 0 -7 -82 -150 -255 -445 -29
-49 -60 -103 -69 -120 -9 -16 -25 -43 -36 -60 -10 -16 -31 -52 -45 -80 -15
-27 -33 -57 -41 -66 -8 -8 -14 -18 -14 -21 0 -4 -28 -53 -61 -110 -34 -57 -73
-123 -87 -148 -32 -59 -40 -66 -53 -53 -7 7 -10 366 -10 1219 0 665 0 1217 1
1227 0 27 15 20 33 -15z m867 -1484 c0 -8 5 -20 11 -27 16 -19 109 -179 109
-189 0 -4 5 -8 10 -8 6 0 10 -5 10 -10 0 -9 112 -203 368 -640 12 -19 39 -66
61 -105 23 -38 53 -90 67 -115 14 -25 45 -76 67 -115 22 -38 44 -71 49 -73 4
-2 8 -10 8 -18 0 -8 5 -20 11 -27 8 -10 200 -337 284 -487 11 -19 23 -36 28
-38 4 -2 7 -7 7 -12 0 -7 36 -70 208 -364 45 -76 82 -143 82 -147 0 -5 5 -9
10 -9 6 0 10 -4 10 -9 0 -8 50 -96 123 -219 15 -26 31 -54 34 -62 4 -8 9 -17
12 -20 8 -7 38 -57 58 -98 23 -45 7 -61 -39 -36 -18 11 -35 22 -36 27 -2 4 -7
7 -12 7 -5 0 -53 26 -107 58 -54 32 -105 61 -113 65 -8 4 -33 18 -55 31 -37
23 -136 81 -225 131 -19 11 -135 79 -258 150 -122 72 -239 139 -260 150 -20
11 -66 37 -102 58 -36 21 -74 43 -85 49 -31 18 -250 145 -358 210 -54 32 -100
58 -102 58 -3 0 -35 19 -147 85 -9 5 -41 23 -70 39 -29 16 -64 36 -78 45 -14
9 -42 26 -63 36 -26 14 -35 24 -31 35 12 26 14 215 3 251 -5 19 -12 43 -14 53
-9 39 -60 129 -97 171 l-38 43 31 54 c18 29 45 78 62 108 16 30 34 61 40 68
17 21 97 165 97 174 0 4 3 8 8 8 4 0 13 15 21 33 8 17 18 34 21 37 4 3 18 25
30 50 12 25 26 47 29 50 4 3 15 21 24 40 10 19 42 76 72 125 30 50 61 101 68
115 6 14 19 36 28 50 9 14 38 62 64 107 45 76 65 94 65 57z m4020 6 c0 -5 27
-54 60 -108 33 -55 60 -103 60 -107 0 -3 14 -26 30 -50 17 -24 30 -48 30 -54
0 -6 5 -11 10 -11 6 0 10 -4 10 -10 0 -5 64 -118 142 -252 78 -134 146 -252
153 -263 6 -11 23 -39 38 -62 15 -24 27 -45 27 -48 0 -2 18 -35 41 -71 40 -66
40 -66 21 -88 -43 -47 -84 -125 -110 -211 -3 -11 -6 -75 -6 -143 l-1 -122 -83
-50 c-46 -28 -85 -50 -87 -50 -3 0 -28 -15 -57 -33 -29 -19 -60 -37 -68 -40
-8 -4 -22 -11 -30 -17 -44 -28 -173 -100 -181 -100 -5 0 -9 -4 -9 -8 0 -4 -12
-13 -27 -20 -16 -7 -37 -18 -48 -25 -11 -7 -38 -23 -60 -35 -22 -12 -56 -32
-75 -43 -19 -12 -125 -73 -235 -136 -110 -64 -211 -123 -225 -131 -14 -9 -27
-17 -30 -17 -5 0 -89 -50 -277 -162 -40 -24 -75 -43 -78 -43 -2 0 -29 -16 -59
-35 -30 -19 -57 -35 -59 -35 -3 0 -35 -18 -71 -40 -36 -22 -68 -40 -72 -40 -3
0 -25 -14 -50 -30 -24 -17 -44 -27 -44 -23 0 4 -4 4 -8 -2 -4 -5 -17 -16 -29
-22 -13 -7 -33 -19 -45 -25 -13 -7 -25 -15 -28 -18 -5 -5 -52 -32 -97 -55 -19
-10 -31 -11 -39 -4 -10 8 -6 22 18 62 17 29 39 66 48 82 9 17 31 54 49 83 17
29 31 56 31 59 0 4 6 14 14 22 8 9 26 39 41 66 14 28 46 84 71 125 26 41 57
95 71 120 33 58 123 212 190 323 29 49 53 90 53 92 0 3 25 45 55 95 30 50 55
93 55 95 0 2 24 44 53 92 30 49 65 109 79 133 14 25 87 151 163 280 76 129
147 251 158 270 11 19 58 100 105 180 46 80 94 161 105 180 11 19 57 99 103
178 46 79 84 147 84 152 0 6 3 10 8 10 4 0 21 26 37 57 17 32 36 64 43 71 6 7
12 18 12 23 0 6 5 7 10 4 6 -3 10 -10 10 -15z"/>
</g>
</svg>
